<svg width="55" height="52" viewBox="0 0 55 52" fill="none" xmlns="http://www.w3.org/2000/svg">
<ellipse cx="27.5316" cy="26.0275" rx="26.5941" ry="25.7882" fill="#B548C6"/>
<path fill-rule="evenodd" clip-rule="evenodd" d="M19.775 30.0993C19.775 30.8956 20.1389 31.6104 20.7082 32.1081V33.7187C20.7082 34.2164 21.1281 34.6236 21.6413 34.6236H22.5744C23.0876 34.6236 23.5075 34.2164 23.5075 33.7187V32.8139H30.9725V33.7187C30.9725 34.2164 31.3925 34.6236 31.9057 34.6236H32.8388C33.352 34.6236 33.7719 34.2164 33.7719 33.7187V32.1081C34.3411 31.6104 34.7051 30.8956 34.7051 30.0993V21.0508C34.7051 17.8838 31.3645 17.4314 27.24 17.4314C23.1156 17.4314 19.775 17.8838 19.775 21.0508V30.0993ZM23.041 31.0042C22.2665 31.0042 21.6414 30.3979 21.6414 29.6469C21.6414 28.8959 22.2665 28.2896 23.041 28.2896C23.8155 28.2896 24.4407 28.8959 24.4407 29.6469C24.4407 30.3979 23.8155 31.0042 23.041 31.0042ZM31.4392 31.0042C30.6647 31.0042 30.0395 30.3979 30.0395 29.6469C30.0395 28.8959 30.6647 28.2896 31.4392 28.2896C32.2137 28.2896 32.8389 28.8959 32.8389 29.6469C32.8389 30.3979 32.2137 31.0042 31.4392 31.0042ZM32.8389 25.5751H21.6414V21.0508H32.8389V25.5751Z" fill="white"/>
</svg>
