<svg width="55" height="53" viewBox="0 0 55 53" fill="none" xmlns="http://www.w3.org/2000/svg">
<ellipse cx="27.5316" cy="26.2157" rx="26.5941" ry="25.7882" fill="#32A7E2"/>
<path fill-rule="evenodd" clip-rule="evenodd" d="M23.9857 31.3734C23.0106 31.3734 22.2217 32.147 22.2217 33.0926C22.2217 34.0381 23.0106 34.8118 23.9857 34.8118C24.9609 34.8118 25.7587 34.0381 25.7587 33.0926C25.7587 32.147 24.9609 31.3734 23.9857 31.3734ZM18.667 17.6196V19.3388H20.4399L23.6312 25.8633L22.4345 27.9693C22.2927 28.21 22.2129 28.4937 22.2129 28.7945C22.2129 29.7401 23.0107 30.5137 23.9858 30.5137H34.6235V28.7945H24.3581C24.234 28.7945 24.1365 28.7 24.1365 28.5796L24.1631 28.4765L24.9609 27.0753H31.5651C32.23 27.0753 32.8151 26.7229 33.1165 26.1899L36.29 20.6111C36.3609 20.4907 36.3964 20.3446 36.3964 20.1985C36.3964 19.7257 35.9975 19.3388 35.5099 19.3388H22.399L21.5658 17.6196H18.667ZM32.8504 31.3734C31.8753 31.3734 31.0863 32.147 31.0863 33.0926C31.0863 34.0381 31.8753 34.8118 32.8504 34.8118C33.8255 34.8118 34.6234 34.0381 34.6234 33.0926C34.6234 32.147 33.8255 31.3734 32.8504 31.3734Z" fill="white"/>
</svg>
