<svg width="55" height="53" viewBox="0 0 55 53" fill="none" xmlns="http://www.w3.org/2000/svg">
<ellipse cx="27.5316" cy="26.651" rx="26.5941" ry="25.7882" fill="#DC3434"/>
<path fill-rule="evenodd" clip-rule="evenodd" d="M36.841 31.7491H36.374C35.8076 31.7491 35.8294 31.2255 35.8294 31.2255C35.8294 31.2255 35.8256 31.2268 35.8247 31.2268C35.5094 28.1524 33.4441 25.5839 30.6065 24.4651C30.5984 24.4612 30.5927 24.4573 30.5846 24.4537C30.1245 24.2585 30.1136 23.8213 30.1136 23.8213V22.6479C30.1136 21.892 29.4821 21.2784 28.7016 21.2784H26.1708C25.391 21.2784 24.7586 21.892 24.7586 22.6479V23.9957C24.7458 24.1086 24.6769 24.2963 24.376 24.4198C24.3567 24.428 24.342 24.4358 24.3264 24.4428C21.4648 25.5464 19.3749 28.1189 19.0493 31.2053L19.0456 31.2041C19.0456 31.2041 18.9988 31.7491 18.4617 31.7491H18.1122C18.0012 31.7515 17.5588 31.7893 17.5588 32.2316V32.5854C17.5654 32.737 17.6333 33.098 18.1455 33.098H36.7045C37.212 33.098 37.3002 32.7796 37.3133 32.6201V32.26C37.3133 31.8346 36.9999 31.7597 36.841 31.7491ZM29.0939 23.4576C29.0911 23.567 29.0481 23.9709 28.5257 23.9238C28.497 23.921 28.478 23.9219 28.4587 23.9229C28.1228 23.8827 27.7838 23.8558 27.4361 23.8558C27.0408 23.8558 26.6541 23.8929 26.2728 23.9452C26.2463 23.944 26.2158 23.9452 26.1781 23.9497C25.7634 23.9975 25.6908 23.7455 25.6808 23.6162V22.9923C25.6808 22.5102 26.0834 22.1192 26.5809 22.1192H28.1942C28.6914 22.1192 29.0942 22.5102 29.0942 22.9923V23.4576H29.0939ZM32.9556 31.7425H32.2424C31.8776 31.7425 31.7848 31.5524 31.7636 31.4195C31.7636 31.3878 31.762 31.3443 31.7601 31.2929C31.7358 30.5987 31.5526 28.2162 30.1943 26.3316L30.2008 26.3313L30.0438 26.0733C30.027 25.9784 30.0329 25.8404 30.2728 26.034C31.4501 27.0177 33.1905 28.8911 33.2905 31.4485C33.284 31.5594 33.2332 31.7425 32.9556 31.7425Z" fill="white"/>
</svg>
