<svg width="567" height="120" viewBox="0 0 567 120" fill="none" xmlns="http://www.w3.org/2000/svg">
<path opacity="0.2" fill-rule="evenodd" clip-rule="evenodd" d="M0.9375 49.714H18.6669V119.314H0.9375V49.714Z" fill="#9DC8FF"/>
<path opacity="0.2" fill-rule="evenodd" clip-rule="evenodd" d="M25.3154 15.9084H43.0448V119.314H25.3154V15.9084Z" fill="#9DC8FF"/>
<path opacity="0.2" fill-rule="evenodd" clip-rule="evenodd" d="M50.8014 31.817H68.5308V119.314H50.8014V31.817Z" fill="#9DC8FF"/>
<path opacity="0.2" fill-rule="evenodd" clip-rule="evenodd" d="M100.666 49.714H118.395V119.314H100.666V49.714Z" fill="#9DC8FF"/>
<path opacity="0.2" fill-rule="evenodd" clip-rule="evenodd" d="M125.043 59.6569H142.773V119.314H125.043V59.6569Z" fill="#9DC8FF"/>
<path opacity="0.2" fill-rule="evenodd" clip-rule="evenodd" d="M150.529 31.817H168.259V119.314H150.529V31.817Z" fill="#9DC8FF"/>
<path opacity="0.2" fill-rule="evenodd" clip-rule="evenodd" d="M174.907 65.6226H192.637V119.314H174.907V65.6226Z" fill="#9DC8FF"/>
<path opacity="0.2" fill-rule="evenodd" clip-rule="evenodd" d="M75.1794 65.6226H92.9089V119.314H75.1794V65.6226Z" fill="#9DC8FF"/>
<path opacity="0.2" fill-rule="evenodd" clip-rule="evenodd" d="M200.393 49.714H218.123V119.314H200.393V49.714Z" fill="#9DC8FF"/>
<path opacity="0.2" fill-rule="evenodd" clip-rule="evenodd" d="M224.771 15.9084H242.501V119.314H224.771V15.9084Z" fill="#9DC8FF"/>
<path opacity="0.2" fill-rule="evenodd" clip-rule="evenodd" d="M250.257 31.817H267.987V119.314H250.257V31.817Z" fill="#9DC8FF"/>
<path opacity="0.2" fill-rule="evenodd" clip-rule="evenodd" d="M299.013 49.714H316.743V119.314H299.013V49.714Z" fill="#9DC8FF"/>
<path opacity="0.2" fill-rule="evenodd" clip-rule="evenodd" d="M324.499 59.6569H342.229V119.314H324.499V59.6569Z" fill="#9DC8FF"/>
<path opacity="0.2" fill-rule="evenodd" clip-rule="evenodd" d="M348.877 31.817H366.607V119.314H348.877V31.817Z" fill="#9DC8FF"/>
<path opacity="0.2" fill-rule="evenodd" clip-rule="evenodd" d="M374.363 65.6226H392.093V119.314H374.363V65.6226Z" fill="#9DC8FF"/>
<path opacity="0.2" fill-rule="evenodd" clip-rule="evenodd" d="M274.635 65.6226H292.365V119.314H274.635V65.6226Z" fill="#9DC8FF"/>
<path opacity="0.2" fill-rule="evenodd" clip-rule="evenodd" d="M398.741 49.714H416.471V119.314H398.741V49.714Z" fill="#9DC8FF"/>
<path opacity="0.2" fill-rule="evenodd" clip-rule="evenodd" d="M424.227 15.9084H441.957V119.314H424.227V15.9084Z" fill="#9DC8FF"/>
<path opacity="0.2" fill-rule="evenodd" clip-rule="evenodd" d="M448.605 31.817H466.334V119.314H448.605V31.817Z" fill="#9DC8FF"/>
<path opacity="0.2" fill-rule="evenodd" clip-rule="evenodd" d="M498.469 49.714H516.199V119.314H498.469V49.714Z" fill="#9DC8FF"/>
<path fill-rule="evenodd" clip-rule="evenodd" d="M523.955 0H541.685V119.314H523.955V0Z" fill="#157AFF"/>
<path opacity="0.2" fill-rule="evenodd" clip-rule="evenodd" d="M548.333 31.817H566.063V119.314H548.333V31.817Z" fill="#9DC8FF"/>
<path opacity="0.2" fill-rule="evenodd" clip-rule="evenodd" d="M474.091 65.6226H491.821V119.314H474.091V65.6226Z" fill="#9DC8FF"/>
</svg>
